<svg width="237" height="63" viewBox="0 0 237 63" fill="none" xmlns="http://www.w3.org/2000/svg">
<path d="M0 33.4852C0 28.2466 4.04276 23.8959 9.26723 23.5121L223.267 7.78858C229.063 7.36274 234 11.9502 234 17.7617V53C234 58.5229 229.523 63 224 63H10C4.47715 63 0 58.5228 0 53V33.4852Z" fill="white"/>
<path d="M0 11.1979C0 5.4099 4.89875 0.830717 10.6736 1.22058L226.992 15.8244C232.514 16.1972 236.683 20.9847 236.294 26.5058L234.656 49.7041C234.287 54.9407 229.931 59 224.681 59H10C4.47715 59 0 54.5228 0 49L0 11.1979Z" fill="#FF8F17"/>
</svg>
