<svg width="16" height="16" viewBox="0 0 16 16" fill="none" xmlns="http://www.w3.org/2000/svg">
<path fill-rule="evenodd" clip-rule="evenodd" d="M2.09614 0.5H13.9039C14.7857 0.5 15.5 1.23579 15.5 2.14419V3.29282C15.5 3.7335 15.3278 4.15667 15.022 4.46531L10.1432 9.40027C10.0591 9.48618 9.94479 9.5339 9.82664 9.53311L5.7417 9.52038C5.61737 9.52038 5.49923 9.46708 5.41429 9.37402L0.930888 4.44304C0.653668 4.13838 0.5 3.73588 0.5 3.31827V2.14499C0.5 1.23658 1.21429 0.5 2.09614 0.5ZM5.96008 10.8681L9.601 10.8792C9.82803 10.88 10.0118 11.0702 10.0118 11.3032V13.3515C10.0118 13.5854 9.879 13.7969 9.67205 13.8948L6.36703 15.4467C6.28981 15.4825 6.20795 15.5 6.1261 15.5C6.01722 15.5 5.90834 15.4682 5.81336 15.4053C5.64734 15.2956 5.54695 15.1063 5.54695 14.9034V11.2921C5.54695 11.0574 5.73228 10.8673 5.96008 10.8681Z" fill="white" fill-opacity="0.8"/>
</svg>
