<svg width="41" height="41" viewBox="0 0 41 41" fill="none" xmlns="http://www.w3.org/2000/svg">
<path fill-rule="evenodd" clip-rule="evenodd" d="M20.4949 0.326904C9.21926 0.326904 0.0759277 9.46832 0.0759277 20.7457C0.0759277 29.7673 5.92662 37.4211 14.0396 40.1212C15.06 40.3101 15.4348 39.678 15.4348 39.1388C15.4348 38.6522 15.416 37.0434 15.4072 35.3372C9.72658 36.5725 8.52791 32.928 8.52791 32.928C7.59899 30.568 6.26084 29.9403 6.26084 29.9403C4.40805 28.673 6.40049 28.6991 6.40049 28.6991C8.45068 28.8431 9.53049 30.8036 9.53049 30.8036C11.3516 33.925 14.3072 33.0225 15.4725 32.5008C15.6558 31.1812 16.1848 30.2802 16.7689 29.7703C12.2335 29.2541 7.46572 27.5031 7.46572 19.6792C7.46572 17.4501 8.26346 15.6285 9.56976 14.1985C9.35778 13.684 8.65878 11.6074 9.7676 8.79467C9.7676 8.79467 11.4823 8.24621 15.384 10.888C17.0128 10.4355 18.7597 10.2086 20.495 10.2007C22.2301 10.2086 23.9782 10.4355 25.61 10.888C29.5074 8.24621 31.2197 8.79467 31.2197 8.79467C32.3311 11.6074 31.632 13.684 31.4201 14.1985C32.7293 15.6285 33.5215 17.45 33.5215 19.6792C33.5215 27.5219 28.7447 29.2485 24.1977 29.7541C24.9301 30.3878 25.5826 31.6304 25.5826 33.5353C25.5826 36.2674 25.5592 38.4663 25.5592 39.1388C25.5592 39.6824 25.9266 40.3191 26.9615 40.1187C35.0704 37.4156 40.9137 29.7644 40.9137 20.7457C40.9137 9.46832 31.7716 0.326904 20.4949 0.326904Z" fill="white"/>
</svg>
