<svg width="20" height="20" viewBox="0 0 20 20" fill="none" xmlns="http://www.w3.org/2000/svg">
<g clip-path="url(#clip0_17_317)">
<path d="M19.5901 0.00260003C15.686 -0.0674 11.2335 1.97343 8.41513 5.13927C5.7218 5.1901 3.0993 6.29427 1.16846 8.2251C1.05596 8.33593 1.01596 8.50177 1.06513 8.65177C1.11513 8.8026 1.24513 8.91177 1.4018 8.93427L4.61347 9.39427L4.2168 9.83843C4.0693 10.0034 4.0768 10.2543 4.23346 10.4109L9.5893 15.7668C9.67013 15.8476 9.7768 15.8884 9.8843 15.8884C9.98347 15.8884 10.0826 15.8534 10.1618 15.7826L10.606 15.3859L11.066 18.5976C11.0885 18.7543 11.2118 18.8693 11.361 18.9193C11.3993 18.9318 11.4393 18.9376 11.4801 18.9376C11.5985 18.9376 11.7193 18.8859 11.8026 18.8034C13.7068 16.8993 14.811 14.2768 14.8618 11.5834C18.031 8.75927 20.0885 4.30843 19.9976 0.409267C19.9918 0.1876 19.8126 0.00843337 19.5901 0.00260003ZM15.7501 7.19593C15.3443 7.60177 14.811 7.8051 14.2768 7.8051C13.7426 7.8051 13.2093 7.60177 12.8035 7.19593C11.9918 6.38343 11.9918 5.06177 12.8035 4.24927C13.616 3.43677 14.9376 3.43677 15.7501 4.24927C16.5626 5.06177 16.5626 6.38427 15.7501 7.19593Z" fill="white"/>
<path d="M2.27005 14.0875C1.37838 14.9792 0.154215 19.0075 0.0175478 19.4634C-0.0266188 19.61 0.0142145 19.7692 0.121714 19.8775C0.201715 19.9575 0.307548 20 0.416714 20C0.456714 20 0.496714 19.9942 0.536714 19.9825C0.992548 19.8459 5.02088 18.6217 5.91255 17.73C6.91671 16.7259 6.91671 15.0917 5.91255 14.0875C4.90755 13.0834 3.27421 13.0842 2.27005 14.0875Z" fill="white"/>
</g>
<defs>
<clipPath id="clip0_17_317">
<rect width="20" height="20" fill="white"/>
</clipPath>
</defs>
</svg>
